#!OML:ASF X:\für Bonn\!DataBase\2005_08_10_Bjorn_Final\c3d\bjorn.ASF
:FULLY-SPECIFIED
:DEGREES
181
root 3.42136 7.41637 -0.45272 299.047 -264.94 -405.995
lowerback 47.8227 -7.78949 6.56925
upperback 22.7202 -1.20443 5.88801
thorax 5.25851 1.45884 3.86086
lowerneck -7.40087 -5.33404 2.73148
upperneck 4.30294 -7.14465 -3.95897
head 2.40476 -3.633 -2.04676
rclavicle 6.04305e-014 3.18055e-015
rhumerus 1.04828 -14.9863 -74.6363
rradius 28.6605
rwrist 23.912
rhand -52.6125 58.7504
rfingers 7.12502
rthumb -25.0946 30.3794
lclavicle 6.04305e-014 3.18055e-015
lhumerus 17.7702 -40.4278 55.4132
lradius 41.2953
lwrist -14.9791
lhand -24.6319 -14.5693
lfingers 7.12502
lthumb 1.86711 15.4023
rfemur 144.251 67.1607 32.7142
rtibia 203.406
rfoot -109.353 104.704
rtoes -10.3619
lfemur 60.1225 74.4401 133.801
ltibia 158.756
lfoot -52.6425 -35.0489
ltoes -32.5157
182
root 3.42523 7.4321 -0.449162 299.742 -265.083 -405.36
lowerback 47.6318 -7.73354 6.68838
upperback 22.6408 -1.14548 5.93808
thorax 5.19415 1.48171 3.8313
lowerneck -7.38473 -5.0056 2.98813
upperneck 3.77408 -6.72497 -4.34334
head 2.22245 -3.43415 -2.18489
rclavicle 1.27222e-014 7.95139e-015
rhumerus 0.981867 -15.0775 -74.6051
rradius 28.382
rwrist 24.0504
rhand -52.5411 58.3238
rfingers 7.12502
rthumb -25.0261 29.9432
lclavicle 1.27222e-014 7.95139e-015
lhumerus 17.4077 -40.92 55.3185
lradius 41.6475
lwrist -14.6639
lhand -24.6202 -14.3954
lfingers 7.12502
lthumb 1.8784 15.576
rfemur 144.326 67.2776 33.3246
rtibia 203.513
rfoot -108.944 104.6
rtoes -10.0922
lfemur 59.4285 74.8837 133.211
ltibia 158.673
lfoot -52.5529 -34.8377
ltoes -32.9332
183
root 3.4293 7.45064 -0.445306 300.619 -265.27 -404.549
lowerback 47.4532 -7.67064 6.83302
upperback 22.545 -1.06852 5.99858
thorax 5.11026 1.51313 3.79512
lowerneck -7.35359 -4.67378 3.22073
upperneck 3.24179 -6.3003 -4.7164
head 2.0418 -3.23114 -2.31676
rclavicle 8.5875e-014 1.06549e-013
rhumerus 0.891941 -15.1756 -74.5667
rradius 28.1118
rwrist 24.2412
rhand -52.4399 57.7894
rfingers 7.12502
rthumb -24.9292 29.3953
lclavicle 8.5875e-014 1.06549e-013
lhumerus 17.0509 -41.4137 55.2152
lradius 41.977
lwrist -14.3958
lhand -24.6164 -14.2489
lfingers 7.12502
lthumb 1.88207 15.7226
rfemur 144.416 67.4222 34.0477
rtibia 203.625
rfoot -108.303 104.557
rtoes -9.8701
lfemur 58.7178 75.3025 132.658
ltibia 158.589
lfoot -52.4475 -34.6627
ltoes -33.3239
184
root 3.43224 7.47145 -0.442455 301.278 -265.429 -403.968
lowerback 47.3065 -7.59952 6.98269
upperback 22.3929 -0.984203 6.04171
thorax 4.9576 1.54518 3.73311
lowerneck -7.30638 -4.35735 3.43439
upperneck 2.76527 -5.8951 -5.05995
head 1.8808 -3.03555 -2.43971
rclavicle -3.18055e-014 -6.36111e-014
rhumerus 0.688578 -15.2484 -74.5044
rradius 27.8923
rwrist 24.3324
rhand -52.2984 57.1083
rfingers 7.12502
rthumb -24.7935 28.6954
lclavicle -3.18055e-014 -6.36111e-014
lhumerus 16.659 -42.0014 55.094
lradius 42.3086
lwrist -14.0855
lhand -24.5672 -14.1975
lfingers 7.12502
lthumb 1.92959 15.7735
rfemur 144.607 67.6884 34.8976
rtibia 203.757
rfoot -107.351 104.456
rtoes -9.62181
lfemur 57.8519 75.8277 131.815
ltibia 158.466
lfoot -52.2162 -34.5326
ltoes -33.5304
185
root 3.43466 7.49466 -0.439224 302.389 -265.594 -402.93
lowerback 47.1578 -7.54614 7.16437
upperback 22.2565 -0.90332 6.07735
thorax 4.82573 1.58169 3.65077
lowerneck -7.35346 -4.02372 3.66704
upperneck 2.31378 -5.47201 -5.39312
head 1.74903 -2.83062 -2.56869
rclavicle 4.77083e-014 7.95139e-014
rhumerus 0.543392 -15.4405 -74.5074
rradius 27.636
rwrist 24.5247
rhand -52.103 56.3467
rfingers 7.12502
rthumb -24.6062 27.9082
lclavicle 4.77083e-014 7.95139e-014
lhumerus 16.3144 -42.5543 54.9204
lradius 42.6261
lwrist -13.8003
lhand -24.4609 -14.2718
lfingers 7.12502
lthumb 2.03221 15.6982
rfemur 144.818 67.9098 35.8296
rtibia 203.908
rfoot -106.601 104.221
rtoes -9.08723
lfemur 56.6006 76.4712 130.599
ltibia 158.338
lfoot -51.9657 -34.3242
ltoes -33.8684
186
root 3.43751 7.52123 -0.436067 302.932 -265.747 -402.499
lowerback 46.9114 -7.45404 7.28812
upperback 22.1757 -0.815804 6.11194
thorax 4.76949 1.61836 3.59093
lowerneck -7.44476 -3.679 3.88301
upperneck 1.83092 -5.03655 -5.70691
head 1.61945 -2.6187 -2.69056
rclavicle 3.81667e-014 3.18055e-014
rhumerus 0.501908 -15.5957 -74.4925
rradius 27.2955
rwrist 24.6942
rhand -51.8759 55.5019
rfingers 7.12502
rthumb -24.3885 27.034
lclavicle 3.81667e-014 3.18055e-014
lhumerus 16.0455 -43.0375 54.7085
lradius 42.9053
lwrist -13.5789
lhand -24.3665 -14.5485
lfingers 7.12502
lthumb 2.12342 15.4207
rfemur 145.122 68.2941 36.8703
rtibia 204.071
rfoot -105.401 104.06
rtoes -8.84067
lfemur 55.4712 77.0652 129.427
ltibia 158.199
lfoot -51.6986 -34.1222
ltoes -34.0866
187
root 3.44072 7.54978 -0.433855 303.509 -265.898 -402.056
lowerback 46.6198 -7.36084 7.38654
upperback 22.111 -0.744283 6.16043
thorax 4.73901 1.64344 3.56196
lowerneck -7.56977 -3.32469 3.96079
upperneck 1.37316 -4.57848 -5.94327
head 1.51212 -2.39401 -2.76393
rclavicle -2.8625e-014 -2.54444e-014
rhumerus 0.53688 -15.7783 -74.4857
rradius 26.8682
rwrist 24.941
rhand -51.5902 54.6
rfingers 7.12502
rthumb -24.1146 26.0955
lclavicle -2.8625e-014 -2.54444e-014
lhumerus 15.7501 -43.5161 54.5165
lradius 43.1879
lwrist -13.258
lhand -24.2621 -14.8117
lfingers 7.12502
lthumb 2.22422 15.1564
rfemur 145.433 68.6977 37.9383
rtibia 204.249
rfoot -104.13 103.932
rtoes -8.66435
lfemur 53.9878 77.7932 127.847
ltibia 158.038
lfoot -51.3247 -33.9714
ltoes -34.298
188
root 3.44263 7.58218 -0.431705 304.017 -266.054 -401.698
lowerback 46.3327 -7.25218 7.49144
upperback 22.0289 -0.654423 6.20926
thorax 4.68877 1.67634 3.52366
lowerneck -7.64923 -2.97342 4.0425
upperneck 0.880029 -4.12623 -6.1574
head 1.38682 -2.16977 -2.82939
rclavicle 3.18055e-015 -6.36111e-014
rhumerus 0.527124 -16.0129 -74.4732
rradius 26.4665
rwrist 25.2533
rhand -51.3375 53.6896
rfingers 7.12502
rthumb -23.8723 25.1532
lclavicle 3.18055e-015 -6.36111e-014
lhumerus 15.4962 -44.0625 54.2492
lradius 43.4695
lwrist -12.9383
lhand -24.2029 -14.987
lfingers 7.12502
lthumb 2.28143 14.9806
rfemur 145.907 69.1855 39.2404
rtibia 204.466
rfoot -102.829 103.489
rtoes -7.91657
lfemur 52.1977 78.5887 125.898
ltibia 157.853
lfoot -50.945 -33.7129
ltoes -34.5337
189
root 3.44463 7.61733 -0.429573 304.287 -266.184 -401.586
lowerback 45.1411 -6.9973 7.40067
upperback 22.7052 -0.630729 6.38362
thorax 4.75474 1.70012 3.56206
lowerneck -7.66593 -2.61612 4.1251
upperneck 0.369427 -3.66551 -6.36689
head 1.24692 -1.93893 -2.89228
rclavicle 2.54444e-014 -3.49861e-014
rhumerus 0.466287 -16.121 -74.4342
rradius 26.1074
rwrist 25.455
rhand -51.0949 52.6511
rfingers 7.12502
rthumb -23.6396 24.0845
lclavicle 2.54444e-014 -3.49861e-014
lhumerus 15.1965 -44.657 54.0068
lradius 43.7299
lwrist -12.5512
lhand -24.1132 -14.9945
lfingers 7.12502
lthumb 2.368 14.9721
rfemur 146.657 69.7832 40.8155
rtibia 204.684
rfoot -101.048 103.19
rtoes -7.55528
lfemur 49.5791 79.5052 123.035
ltibia 157.644
lfoot -50.4485 -33.4644
ltoes -34.7772
190
root 3.44706 7.65552 -0.427945 304.402 -266.336 -401.625
lowerback 44.8933 -6.86426 7.47077
upperback 22.5716 -0.527814 6.42168
thorax 4.65497 1.73249 3.52079
lowerneck -7.69843 -2.26524 4.27236
upperneck -0.112989 -3.21853 -6.60018
head 1.11882 -1.71458 -2.9782
rclavicle -9.54166e-015 -9.54166e-015
rhumerus 0.395262 -16.2506 -74.4011
rradius 25.7362
rwrist 25.7365
rhand -50.8222 51.6265
rfingers 7.12502
rthumb -23.3781 23.0263
lclavicle -9.54166e-015 -9.54166e-015
lhumerus 14.9311 -45.3059 53.7237
lradius 43.9479
lwrist -12.1558
lhand -23.989 -14.87
lfingers 7.12502
lthumb 2.488 15.0953
rfemur 32.4146 -70.3803 -137.382
rtibia 155.071
rfoot -99.272 77.1135
rtoes -7.14389
lfemur 46.6237 80.2861 119.84
ltibia 157.422
lfoot -50.0509 -33.2222
ltoes -34.9212
191
root 3.44893 7.69587 -0.426702 304.38 -266.458 -401.823
lowerback 44.6255 -6.71112 7.49686
upperback 22.4117 -0.424043 6.48702
thorax 4.52867 1.75495 3.52809
lowerneck -7.70442 -1.93362 4.3174
upperneck -0.535755 -2.78602 -6.7983
head 1.00758 -1.4959 -3.03515
rclavicle -3.18055e-014 -1.27222e-014
rhumerus 0.25733 -16.1814 -74.2748
rradius 25.4089
rwrist 25.8746
rhand -50.613 50.4697
rfingers 7.12502
rthumb -23.1773 21.8442
lclavicle -3.18055e-014 -1.27222e-014
lhumerus 14.5986 -45.9183 53.5655
lradius 44.1236
lwrist -11.8711
lhand -23.7815 -14.7297
lfingers 7.12502
lthumb 2.68838 15.2331
rfemur 31.3379 -71.0281 -135.443
rtibia 154.821
rfoot -97.1252 77.2503
rtoes -7.00384
lfemur 41.9564 81.2447 114.833
ltibia 157.172
lfoot -49.4729 -32.9896
ltoes -35.034
192
root 3.45129 7.7385 -0.425482 304.085 -266.582 -402.292
lowerback 44.3466 -6.55103 7.49439
upperback 22.2611 -0.324568 6.54519
thorax 4.41633 1.77352 3.54353
lowerneck -7.70213 -1.61099 4.38058
upperneck -0.951594 -2.36716 -6.99668
head 0.897315 -1.28306 -3.09701
rclavicle -9.54166e-015 -3.18055e-015
rhumerus 0.177726 -16.2269 -74.1979
rradius 25.0459
rwrist 26.1102
rhand -50.4208 49.4926
rfingers 7.12502
rthumb -22.993 20.8439
lclavicle -9.54166e-015 -3.18055e-015
lhumerus 14.2481 -46.4958 53.4265
lradius 44.2884
lwrist -11.5188
lhand -23.5048 -14.603
lfingers 7.12502
lthumb 2.95556 15.3563
rfemur 30.1033 -71.6567 -133.335
rtibia 154.537
rfoot -95.0732 77.5737
rtoes -6.49164
lfemur 36.8553 81.9941 109.368
ltibia 156.918
lfoot -49.0879 -32.6117
ltoes -35.2665
